<?xml version="1.0" standalone="no"?>
<!DOCTYPE svg PUBLIC "-//W3C//DTD SVG 20010904//EN"
 "http://www.w3.org/TR/2001/REC-SVG-20010904/DTD/svg10.dtd">
<svg version="1.0" xmlns="http://www.w3.org/2000/svg"
 width="500.000000pt" height="500.000000pt" viewBox="0 0 500.000000 500.000000"
 preserveAspectRatio="xMidYMid meet">
<metadata>
Created by potrace 1.11, written by Peter Selinger 2001-2013
</metadata>
<g transform="translate(0.000000,500.000000) scale(0.100000,-0.100000)"
fill="#000000" stroke="none">
<path d="M2265 4489 c-120 -12 -328 -61 -435 -101 -127 -48 -283 -123 -363
-174 -37 -24 -70 -44 -72 -44 -5 0 -67 -44 -95 -67 -8 -7 -46 -38 -85 -70 -89
-73 -175 -159 -248 -248 -32 -38 -63 -77 -70 -85 -24 -29 -67 -90 -67 -95 0
-9 -45 -75 -51 -75 -18 0 -39 116 -39 213 0 117 -9 137 -60 137 -51 0 -60 -20
-60 -133 0 -107 1 -101 -106 -404 -18 -51 -6 -90 31 -99 25 -6 25 -8 25 -103
0 -53 -7 -128 -15 -166 -37 -165 -45 -229 -51 -390 -12 -313 36 -595 142 -840
48 -111 103 -220 140 -278 24 -37 44 -70 44 -73 0 -8 78 -111 138 -183 82 -98
225 -234 329 -312 50 -38 93 -69 96 -69 3 0 29 -16 59 -35 46 -31 204 -111
293 -149 78 -34 147 -57 225 -76 47 -11 102 -25 123 -31 69 -19 280 -39 407
-39 127 0 338 20 407 39 21 6 76 20 123 31 78 19 147 42 225 76 89 38 247 118
293 149 30 19 56 35 58 35 8 0 114 81 183 139 88 74 175 161 244 246 32 39 64
77 71 85 33 37 157 243 195 325 94 200 116 264 164 480 28 122 40 299 33 480
-6 161 -14 225 -51 390 -8 38 -15 113 -15 166 0 95 0 97 25 103 37 9 49 48 31
99 -107 303 -106 297 -106 404 0 113 -9 133 -60 133 -51 0 -60 -20 -60 -137 0
-97 -21 -213 -39 -213 -7 0 -51 66 -51 75 0 20 -165 221 -255 310 -88 89 -290
255 -309 255 -3 0 -36 20 -73 44 -59 37 -173 95 -278 141 -144 62 -363 118
-535 135 -111 11 -341 11 -455 -1z"/>
</g>
</svg>
